<svg width="25" height="56" viewBox="0 0 25 56" fill="none" xmlns="http://www.w3.org/2000/svg">
<path d="M19.1924 1.66699C19.9289 1.39916 20.7286 1.44311 21.4355 1.8877L21.4365 1.88672C21.4447 1.89161 21.4518 1.89833 21.46 1.90332C21.4719 1.91102 21.4852 1.91687 21.4971 1.9248L21.4961 1.92578C21.8373 2.14311 22.1478 2.44898 22.3545 2.8623C22.5717 3.29678 22.6261 3.74938 22.5918 4.16113L22.5898 4.18652L22.2539 7.5459L22.2529 7.55371L22.252 7.56055C21.964 10.1839 21.6908 12.4617 21.4336 14.3926C21.05 17.557 20.7639 20.06 20.5732 21.9033C20.3848 23.7253 20.2101 26.0985 20.0508 29.0303C19.8932 31.9307 19.8622 34.4149 19.9541 36.4902L20.0068 37.2734C20.1432 39.1212 20.375 41.1457 20.7051 43.3486H20.7061C21.0593 45.5222 21.5418 47.5678 22.1514 49.4873L22.4199 50.3027L22.4238 50.3145L22.4688 50.46C22.5646 50.8067 22.6019 51.1994 22.5195 51.6113C22.4306 52.0553 22.2186 52.4315 21.9404 52.7334C21.422 53.3605 20.6775 53.6957 19.8369 53.6279C19.4049 53.6085 18.9555 53.4729 18.5645 53.1602C18.1574 52.8345 17.9288 52.4122 17.8018 52.0312V52.0303C16.2434 47.5142 15.354 42.3481 15.1123 36.5479C13.7306 39.0874 12.132 41.3224 10.3096 43.2441L10.3105 43.2451C9.66107 43.9709 8.91069 44.5688 8.06445 45.0342L8.06543 45.0352C7.27883 45.4846 6.47171 45.8068 5.64746 45.9717C4.49393 46.2024 3.42415 45.8534 2.62402 44.9961C1.81482 44.1289 1.53865 42.9249 1.50195 41.7139L1.50098 41.7031V41.6914C1.46563 39.387 2.21562 37.1006 3.62305 34.8535L3.91309 34.4043C5.47377 31.9838 7.38295 30.256 9.68457 29.4121L9.70508 29.4053L9.72656 29.3975C10.2403 29.2262 10.8842 29.1548 11.5293 29.4277C11.9287 29.5967 12.2321 29.8576 12.4609 30.1484C12.5307 29.9549 12.6027 29.7596 12.6719 29.5605C14.9237 22.9906 16.6031 14.3806 17.6846 3.69336C17.7201 3.31048 17.8353 2.8948 18.0967 2.51465C18.3704 2.11653 18.744 1.84606 19.1475 1.68457L19.1699 1.6748L19.1924 1.66699ZM10.6738 34.4053C9.40228 35.1451 8.25556 36.5185 7.30957 38.75L7.30469 38.7627C7.16122 39.0931 7.0401 39.3918 6.93848 39.6602C8.22066 38.5514 9.4759 36.824 10.6738 34.4053Z" fill="#FF9925" stroke="#FF9925" stroke-width="3"/>
</svg>
